<?xml version="1.0" encoding="UTF-8" standalone="no"?>
<svg width="580px" height="75px" viewBox="0 0 580 75" version="1.1" xmlns="http://www.w3.org/2000/svg" xmlns:xlink="http://www.w3.org/1999/xlink">
    <!-- Generator: Sketch 39.1 (31720) - http://www.bohemiancoding.com/sketch -->
    <title>Page 1</title>
    <desc>Created with Sketch.</desc>
    <defs>
        <polygon id="path-1" points="0 75 578.783751 75 578.783751 0 0 0"></polygon>
    </defs>
    <g id="Page-1" stroke="none" stroke-width="1" fill="none" fill-rule="evenodd">
        <g transform="translate(1.000000, 0.000000)">
            <path d="M34.256005,64.6428571 C41.0358393,64.6428571 46.3883401,63.2142857 46.3883401,56.7857143 C46.3883401,51.0714286 41.7495061,48.9285714 34.256005,48.9285714 L10.7050016,48.9285714 L10.7050016,64.6428571 L34.256005,64.6428571 L34.256005,64.6428571 Z M33.8991716,39.6428571 C41.0358393,39.6428571 44.2473398,37.8571429 44.2473398,33.2142857 C44.2473398,28.5714286 41.0358393,26.7857143 33.8991716,26.7857143 L10.7050016,26.7857143 L10.7050016,39.6428571 L33.8991716,39.6428571 L33.8991716,39.6428571 Z M0,17.8571429 L33.5423382,17.8571429 C46.7451735,17.8571429 55.3091747,21.4285714 55.3091747,32.1428571 C55.3091747,39.2857143 51.7408409,41.7857143 48.8861738,43.5714286 C52.811341,45.3571429 57.450175,50 57.450175,57.5 C57.450175,67.8571429 49.2430072,73.5714286 35.6833385,73.5714286 L0,73.5714286 L0,17.8571429 L0,17.8571429 Z" id="Fill-1" stroke="#AB1F24"></path>
            <mask id="mask-2" fill="white">
                <use xlink:href="#path-1"></use>
            </mask>
            <g id="Clip-4"></g>
            <polygon id="Fill-3" stroke="#AB1F24" mask="url(#mask-2)" points="83.4990122 73.5714286 94.5608471 73.5714286 94.5608471 17.8571429 83.4990122 17.8571429"></polygon>
            <polygon id="Fill-5" stroke="#AB1F24" mask="url(#mask-2)" points="118.111851 73.5714286 118.111851 68.2142857 157.00669 27.1428571 120.252851 27.1428571 120.252851 17.8571429 173.064192 17.8571429 173.064192 23.9285714 135.239853 64.2857143 174.134692 64.2857143 174.134692 73.5714286"></polygon>
            <path d="M230.8712,42.5 C239.792035,42.5 244.430869,41.0714286 244.430869,34.6428571 C244.430869,28.2142857 239.792035,26.7857143 230.8712,26.7857143 L209.818031,26.7857143 L209.818031,42.5 L230.8712,42.5 L230.8712,42.5 Z M198.756196,17.8571429 L232.298534,17.8571429 C245.501369,17.8571429 254.779037,20.7142857 254.779037,34.6428571 C254.779037,45 247.285536,50.7142857 239.078368,51.0714286 L256.206371,73.9285714 L242.646702,73.9285714 L226.5892,51.7857143 L209.818031,51.7857143 L209.818031,73.9285714 L199.113029,73.9285714 L199.113029,17.8571429 L198.756196,17.8571429 Z" id="Fill-6" stroke="#202020" mask="url(#mask-2)"></path>
            <polygon id="Fill-7" stroke="#202020" mask="url(#mask-2)" points="280.827874 17.8571429 330.784548 17.8571429 330.784548 27.1428571 291.889709 27.1428571 291.889709 40 325.432047 40 325.432047 49.6428571 291.889709 49.6428571 291.889709 64.2857143 331.855048 64.2857143 331.855048 73.5714286 280.827874 73.5714286"></polygon>
            <path d="M393.944057,51.4285714 L382.168556,26.4285714 L370.393054,51.4285714 L393.944057,51.4285714 Z M376.102388,17.8571429 L388.591557,17.8571429 L415.710894,73.5714286 L404.292226,73.5714286 L398.582891,60.7142857 L366.467887,60.7142857 L360.401719,73.5714286 L348.983051,73.5714286 L376.102388,17.8571429 Z" id="Fill-8" stroke="#202020" mask="url(#mask-2)"></path>
            <path d="M491.716405,53.5714286 C490.645905,59.6428571 486.363904,75 460.6719,75 C443.187065,75 429.270563,65 429.270563,44.6428571 C429.270563,28.2142857 439.618731,16.0714286 461.742401,16.0714286 C486.720738,16.0714286 490.289071,32.1428571 491.002738,35.3571429 L480.297737,35.3571429 C479.58407,33.5714286 475.302069,25.3571429 462.456067,25.3571429 C447.112232,25.3571429 440.689231,33.9285714 440.689231,45.7142857 C440.689231,58.5714286 449.966899,65.3571429 461.742401,65.3571429 C474.588402,65.3571429 479.940903,57.8571429 481.011403,53.5714286 L491.716405,53.5714286" id="Fill-9" stroke="#202020" mask="url(#mask-2)"></path>
            <path d="M527.04291,32.8571429 L567.721916,32.8571429 L567.721916,24.6428571 L527.04291,24.6428571 L527.04291,32.8571429 Z M527.04291,48.9285714 L567.721916,48.9285714 L567.721916,40.7142857 L527.04291,40.7142857 L527.04291,48.9285714 Z M567.721916,0 L567.721916,16.7857143 L527.04291,16.7857143 L527.04291,0 L515.981075,0 L515.981075,73.5714286 L527.04291,73.5714286 L527.04291,56.7857143 L567.721916,56.7857143 L567.721916,73.5714286 L578.783751,73.5714286 L578.783751,0 L567.721916,0 Z" id="Fill-10" stroke="#202020" mask="url(#mask-2)"></path>
        </g>
    </g>
</svg>