<?xml version="1.0" encoding="utf-8"?>
<!-- Generator: Adobe Illustrator 19.0.0, SVG Export Plug-In . SVG Version: 6.00 Build 0)  -->
<svg version="1.1" id="レイヤー_1" xmlns="http://www.w3.org/2000/svg" xmlns:xlink="http://www.w3.org/1999/xlink" x="0px"
	 y="0px" width="186.3px" height="51.3px" viewBox="0 0 186.3 51.3" style="enable-background:new 0 0 186.3 51.3;"
	 xml:space="preserve">
<style type="text/css">
	.st0{fill:#FFFFFF;}
	.st1{font-family:'Helvetica-Bold';}
	.st2{font-size:12.9673px;}
</style>
<g>
	<g>
		<g>
			<path class="st0" d="M0,5.7h10.8c4.2,0,7,1.2,7,4.6c0,2.3-1.1,3.1-2.1,3.7c1.3,0.5,2.7,2.1,2.7,4.4c0,3.4-2.7,5.2-7,5.2H0V5.7z
				 M11,12.8c2.3,0,3.3-0.6,3.3-2.1c0-1.5-1-2.1-3.3-2.1H3.5v4.1H11z M11.1,20.7c2.2,0,3.9-0.4,3.9-2.6c0-1.9-1.5-2.5-3.9-2.5H3.5v5
				H11.1z"/>
			<path class="st0" d="M26.8,5.7h3.5v17.8h-3.5V5.7z"/>
			<path class="st0" d="M38,23.6v-1.7L50.4,8.7H38.6v-3h17v2L43.5,20.6h12.4v3H38z"/>
			<path class="st0" d="M63.9,5.7h10.7c4.2,0,7.3,1,7.3,5.3c0,3.3-2.4,5.1-5,5.3l5.5,7.3H78l-5.2-7h-5.5v7h-3.5V5.7z M74.1,13.6
				c2.8,0,4.3-0.4,4.3-2.5c0-2.1-1.4-2.5-4.3-2.5h-6.7v5H74.1z"/>
			<path class="st0" d="M90.2,5.7h16v3H93.6v4.1h10.8v3H93.6v4.7h12.8v3H90.2V5.7z"/>
			<path class="st0" d="M120.7,5.7h4l8.7,17.8h-3.7l-1.9-4.1h-10.3l-1.9,4.1h-3.7L120.7,5.7z M126.4,16.5l-3.7-8l-3.7,8H126.4z"/>
			<path class="st0" d="M157.7,17.2c-0.3,2-1.8,6.8-10,6.8c-5.6,0-10.1-3.1-10.1-9.6c0-5.2,3.3-9.1,10.4-9.1c8,0,9.2,5.2,9.4,6.1
				H154c-0.2-0.6-1.6-3.1-5.7-3.1c-4.9,0-7,2.8-7,6.5c0,4.1,3,6.3,6.8,6.3c4.1,0,5.9-2.4,6.2-3.8H157.7z"/>
			<path class="st0" d="M182.1,0v5.4h-13V0h-3.5v23.6h3.5v-5.4h13v5.4h3.5V0H182.1z M182.1,7.9v2.6h-13V7.9H182.1z M169.1,15.6v-2.6
				h13v2.6H169.1z"/>
		</g>
	</g>
	<text transform="matrix(1 0 0 1 1.386255e-04 45.054)" class="st0 st1 st2">RECRUITMENT for DESIGNER</text>
</g>
</svg>
