<?xml version="1.0" encoding="utf-8"?>
<!-- Generator: Adobe Illustrator 19.0.1, SVG Export Plug-In . SVG Version: 6.00 Build 0)  -->
<svg version="1.1" xmlns="http://www.w3.org/2000/svg" xmlns:xlink="http://www.w3.org/1999/xlink" x="0px" y="0px" width="72px"
	 height="72px" viewBox="0 0 72 72" style="enable-background:new 0 0 72 72;" xml:space="preserve">
<style type="text/css">
	.st0{display:none;}
	.st1{display:inline;}
	.st2{fill:none;}
	.st3{fill:#224B73;}
	.st4{fill-rule:evenodd;clip-rule:evenodd;fill:#224B73;}
</style>
<g id="レイヤー_1" class="st0">
	<g class="st1">
		<rect x="0" y="0" class="st2" width="72" height="72"/>
		<g>
			<path class="st3" d="M0,72l12-12h42V18H0V72z M6,24h42v30H9.5L6,57.6V24z"/>
			<rect x="12" y="30" class="st3" width="30" height="6"/>
			<rect x="12" y="42" class="st3" width="30" height="6"/>
			<polygon class="st3" points="18,0 18,12 24,12 24,6 66,6 66,39.6 62.5,36 60,36 60,42 72,54 72,42 72,0 			"/>
		</g>
	</g>
</g>
<g id="レイヤー_2" class="st0">
	<g class="st1">
		<g>
			<path class="st4" d="M71.1,66.9L56.2,52c4.2-5.2,6.8-11.8,6.8-19C63,16.5,49.6,3,33,3S3,16.5,3,33s13.4,30,30,30
				c7.2,0,13.8-2.5,19-6.8l14.9,14.9L71.1,66.9z M9,33C9,19.8,19.8,9,33,9s24,10.8,24,24S46.2,57,33,57S9,46.3,9,33z"/>
			<rect x="24" y="18" class="st4" width="6" height="21"/>
			<rect x="36" y="18" class="st4" width="6" height="21"/>
			<rect x="24" y="42" class="st4" width="6" height="6"/>
			<rect x="36" y="42" class="st4" width="6" height="6"/>
		</g>
		<rect x="0" y="0" class="st2" width="72" height="72"/>
	</g>
</g>
<g id="レイヤー_3" class="st0">
	<g class="st1">
		<path class="st3" d="M3,55.3L3,55.3c-0.5,0.4-1,0.9-1.4,1.3l0,0c-0.2,0.2-0.3,0.4-0.5,0.5c0,0,0,0,0,0c-0.1,0.2-0.2,0.3-0.4,0.5
			c0,0,0,0.1,0,0.1c-0.1,0.2-0.2,0.3-0.3,0.5c0,0.1,0,0.1-0.1,0.2c-0.1,0.1-0.1,0.3-0.2,0.4c0,0.1,0,0.2-0.1,0.3
			c0,0.1-0.1,0.2-0.1,0.3c0,0.2,0,0.4,0,0.6c0,6.6,16.1,12,36,12s36-5.4,36-12V0L3,55.3z M66,12.5v40.9C59.6,50.2,48.5,48,36,48
			c-5.7,0-11.1,0.4-15.9,1.2L66,12.5z M33,66c-0.3,0-0.6,0-0.9,0c-0.7,0-1.3,0-1.9-0.1c-0.4,0-0.7-0.1-1.1-0.1
			c-0.5,0-1.1-0.1-1.6-0.1c-0.4,0-0.8-0.1-1.1-0.1c-0.5,0-1-0.1-1.4-0.1c-0.4,0-0.7-0.1-1-0.1c-0.5-0.1-0.9-0.1-1.4-0.2
			c-0.3-0.1-0.7-0.1-1-0.2c-0.4-0.1-0.9-0.1-1.3-0.2c-0.3-0.1-0.6-0.1-0.9-0.2c-0.4-0.1-0.8-0.1-1.1-0.2c-0.3-0.1-0.6-0.1-0.9-0.2
			c-0.3-0.1-0.7-0.2-1-0.2c-0.3-0.1-0.5-0.1-0.8-0.2c-0.3-0.1-0.7-0.2-1-0.3c-0.3-0.1-0.5-0.1-0.7-0.2c-0.3-0.1-0.6-0.2-0.9-0.3
			c-0.2-0.1-0.5-0.2-0.7-0.2c-0.3-0.1-0.5-0.2-0.8-0.3c-0.2-0.1-0.4-0.2-0.6-0.2c-0.2-0.1-0.5-0.2-0.7-0.3c-0.2-0.1-0.4-0.2-0.5-0.2
			c-0.2-0.1-0.4-0.2-0.6-0.3c-0.2-0.1-0.3-0.2-0.5-0.2C8.3,61.1,8.1,61,8,61c-0.1-0.1-0.3-0.2-0.4-0.2c-0.1-0.1-0.3-0.2-0.4-0.2
			c-0.1-0.1-0.2-0.1-0.3-0.2c-0.1-0.1-0.2-0.1-0.3-0.2L6.7,60l0.4-0.3C10.4,57.4,20.3,54,36,54c16.6,0,26.6,3.8,29.4,6
			c-0.1,0.1-0.2,0.2-0.3,0.2c-0.1,0.1-0.2,0.1-0.2,0.2c-0.2,0.1-0.4,0.2-0.6,0.3c-0.1,0-0.2,0.1-0.2,0.1c-0.3,0.2-0.6,0.3-1,0.5
			c-0.1,0-0.1,0.1-0.2,0.1c-0.3,0.1-0.6,0.3-1,0.4c-0.1,0.1-0.3,0.1-0.5,0.2c-0.3,0.1-0.6,0.2-0.9,0.3c-0.2,0.1-0.4,0.1-0.6,0.2
			c-0.3,0.1-0.6,0.2-0.9,0.3c-0.2,0.1-0.5,0.1-0.7,0.2c-0.3,0.1-0.7,0.2-1,0.3c-0.3,0.1-0.5,0.1-0.8,0.2c-0.4,0.1-0.7,0.2-1.1,0.3
			c-0.3,0.1-0.6,0.1-0.9,0.2c-0.4,0.1-0.8,0.2-1.2,0.3c-0.3,0.1-0.6,0.1-1,0.2c-0.4,0.1-0.8,0.2-1.3,0.2c-0.3,0.1-0.7,0.1-1,0.2
			c-0.5,0.1-0.9,0.1-1.4,0.2c-0.4,0-0.7,0.1-1.1,0.1c-0.5,0.1-1,0.1-1.5,0.2c-0.4,0-0.7,0.1-1.1,0.1c-0.5,0-1.1,0.1-1.7,0.1
			c-0.4,0-0.8,0.1-1.1,0.1c-0.6,0-1.3,0.1-2,0.1c-0.3,0-0.7,0-1,0c-1,0-2.1,0-3.2,0C35,66,34,66,33,66z"/>
		<rect x="0" y="0" class="st2" width="72" height="72"/>
	</g>
</g>
<g id="レイヤー_4" class="st0">
	<g class="st1">
		<g>
			<path class="st3" d="M48,54h-4.5V43.5c0-4.1-3.4-7.5-7.5-7.5s-7.5,3.4-7.5,7.5V66h6V43.5c0-0.8,0.7-1.5,1.5-1.5s1.5,0.7,1.5,1.5
				V54v6H48c1.7,0,3,1.3,3,3v3h6v-3C57,58.1,53,54,48,54z"/>
			<circle class="st3" cx="22.5" cy="13.5" r="4.5"/>
			<circle class="st3" cx="49.5" cy="13.5" r="4.5"/>
			<rect x="33" y="21" class="st3" width="6" height="9"/>
			<path class="st3" d="M21,39h-6c0,6.6,5.4,12,12,12v-6C23.7,45,21,42.4,21,39z"/>
			<path class="st3" d="M57,39h-6c0,3.3-2.7,6-6,6v6C51.6,51,57,45.7,57,39z"/>
		</g>
		<rect x="0" y="0" class="st2" width="72" height="72"/>
	</g>
</g>
<g id="レイヤー_5" class="st0">
	<g class="st1">
		<rect x="0" y="0" class="st2" width="72" height="72"/>
		<path class="st3" d="M42,9c-2.3,0-4.4,0.9-6,2.3C34.4,9.9,32.3,9,30,9H0v54h30c1.1,0,2.1,0.2,3,0.5c1.1,0.4,2.1,1,3,1.8
			c0.9-0.8,1.9-1.4,3-1.8c0.9-0.3,1.9-0.5,3-0.5h30V9H42z M33,57.4c-1-0.2-2-0.3-3-0.3H6V15h24c1.7,0,3,1.3,3,3V57.4z M66,57H42
			c-1,0-2,0.1-3,0.3V18c0-1.7,1.3-3,3-3h24V57z"/>
	</g>
</g>
<g id="レイヤー_6">
	<g>
		<path class="st4" d="M54,12h9V6H9v6h9l12,24L18,60H9v6h54v-6h-9L42,36L54,12z M24.7,12h22.6L36.6,33.4L36,34.6l-0.6-1.3L24.7,12z
			 M30.7,48l4.7-9.3l0.6-1.3l0.6,1.3l4.7,9.3H30.7z"/>
		<rect x="0" y="0" class="st2" width="72" height="72"/>
	</g>
</g>
</svg>
