<svg xmlns="http://www.w3.org/2000/svg" viewBox="0 0 156 29"><defs><style>.a{fill:#767777;}</style></defs><title>採用LP_20161007 (2)</title><path class="a" d="M36.5,20.71a5.44,5.44,0,0,0,3.73-1.4v1.92a7,7,0,0,1-3.72,1,7.5,7.5,0,0,1-7.3-7.74,7.54,7.54,0,0,1,7.35-7.73,7,7,0,0,1,3.72,1.07v2a5.67,5.67,0,0,0-3.72-1.46,6,6,0,0,0-5.78,6.17A5.94,5.94,0,0,0,36.5,20.71Z"/><path class="a" d="M55.31,19.41a7.14,7.14,0,0,1-5.81,2.92,7.5,7.5,0,0,1-7.3-7.74,7.54,7.54,0,0,1,7.35-7.73,7.18,7.18,0,0,1,5.79,3V7.66h1.57l-.05,14.69H55.29Zm-5.8,1.35a5.64,5.64,0,0,0,5.82-5.93c0-3.17-2.05-6.39-5.77-6.4a6,6,0,0,0-5.78,6.17A5.93,5.93,0,0,0,49.5,20.76Z"/><path class="a" d="M61.18,14.42l0,7.95H59.59l.05-15.47h1.57V9.83A7.28,7.28,0,0,1,64,7.57,7,7,0,0,1,67,6.92V8.48a7,7,0,0,0-1.76.31A6.07,6.07,0,0,0,61.18,14.42Z"/><path class="a" d="M79.29,20.2a7.23,7.23,0,0,1-5.18,2.21,7.5,7.5,0,0,1-7.3-7.74,7.35,7.35,0,1,1,14.68.05l-13.12,0a5.94,5.94,0,0,0,5.74,6.17A5.59,5.59,0,0,0,78.2,19.1ZM68.55,13.11l11.2,0a5.7,5.7,0,0,0-11.2,0Z"/><path class="a" d="M95.28,20.25a7.23,7.23,0,0,1-5.18,2.21,7.5,7.5,0,0,1-7.3-7.74,7.35,7.35,0,1,1,14.69.05l-13.12,0a5.93,5.93,0,0,0,5.74,6.17,5.59,5.59,0,0,0,4.08-1.75ZM84.54,13.17l11.2,0a5.7,5.7,0,0,0-11.2,0Z"/><path class="a" d="M101,14.56l0,7.95H99.43L99.48,7H101V10a7.28,7.28,0,0,1,2.83-2.26,7,7,0,0,1,2.94-.65V8.62a7,7,0,0,0-1.76.31A6.07,6.07,0,0,0,101,14.56Z"/><path class="a" d="M108.76,7.06h1.57V3.61h1.57V7.07H115V8.65h-3.13l0,9.95a2.33,2.33,0,0,0,2.38,2.4,2.17,2.17,0,0,0,1.76-.74l1.05,1.18a4,4,0,0,1-6.76-2.84l0-9.95h-1.57Z"/><path class="a" d="M120.6,14.63l0,7.95H119l.05-15.47h1.57V10a7.28,7.28,0,0,1,2.83-2.26,7,7,0,0,1,2.94-.65V8.69a7,7,0,0,0-1.77.31A6.07,6.07,0,0,0,120.6,14.63Z"/><path class="a" d="M138.71,20.41a7.23,7.23,0,0,1-5.18,2.21,7.5,7.5,0,0,1-7.3-7.74,7.35,7.35,0,1,1,14.69.05l-13.12,0a5.94,5.94,0,0,0,5.74,6.17,5.59,5.59,0,0,0,4.08-1.75ZM128,13.32l11.2,0a5.7,5.7,0,0,0-11.2,0Z"/><path class="a" d="M144.44,15.92l8-8.71h2.08l-6.57,7.18,7.49,8.29h-2.12l-6.44-7.11-2.44,2.65,0,4.43h-1.57l.07-18.92h1.57Z"/><path class="a" d="M22.84,19.79a2.89,2.89,0,0,0-2.5.64l-4.29-2.85a3.66,3.66,0,0,1-.73,1.19l4.2,2.79a2.92,2.92,0,0,0,2.1,3.94,2.92,2.92,0,1,0,1.21-5.71Z"/><path class="a" d="M11.86,6v6.71a3.6,3.6,0,0,1,.79-.09,3.68,3.68,0,0,1,.6.06V6a2.92,2.92,0,1,0-1.39,0Z"/><path class="a" d="M9.05,15.53A3.61,3.61,0,0,1,9.21,15L7,14.52a2.92,2.92,0,0,0-5.76-.39,2.92,2.92,0,0,0,2.25,3.46A2.91,2.91,0,0,0,6.74,15.9L9,16.37A3.68,3.68,0,0,1,9.05,15.53Z"/><path class="a" d="M10.95,19.54a3.62,3.62,0,0,1-1.1-.87L5.38,23.09a2.9,2.9,0,0,0-1.23-.48l-.4,0a2.92,2.92,0,0,0-.41,5.81l.4,0a2.93,2.93,0,0,0,2.9-2.52,2.9,2.9,0,0,0-.32-1.78Z"/><path class="a" d="M15.75,14.27a3.69,3.69,0,0,0-2.35-1.61A3.72,3.72,0,0,0,9,15.52a3.72,3.72,0,0,0,2.86,4.41,3.72,3.72,0,0,0,4.41-2.86A3.7,3.7,0,0,0,15.75,14.27Z"/></svg>