<svg xmlns="http://www.w3.org/2000/svg" viewBox="0 0 160 22"><defs><style>.a{fill:#767777;}</style></defs><title>採用LP_20161007 (2)</title><path class="a" d="M.76,7.41h4c1.55,0,2.59.45,2.58,1.7a1.43,1.43,0,0,1-.77,1.37,1.77,1.77,0,0,1,1,1.63c0,1.24-1,1.91-2.6,1.91H.74ZM4.81,10C5.66,10,6,9.83,6,9.28S5.66,8.5,4.82,8.5H2V10Zm0,2.92c.82,0,1.44-.16,1.44-.94s-.56-.91-1.43-.91H2V13Z"/><path class="a" d="M10.69,7.45H12l0,6.6H10.67Z"/><path class="a" d="M14.78,14.07v-.63l4.63-4.84L15,8.57V7.47l6.28,0v.73L16.82,13l4.6,0v1.11Z"/><path class="a" d="M24.38,7.5h4c1.56,0,2.69.36,2.68,2a1.87,1.87,0,0,1-1.85,1.94l2,2.69H29.61l-1.91-2.6h-2V14.1H24.36Zm3.77,2.95c1.05,0,1.59-.15,1.59-.93s-.53-.93-1.58-.93H25.67v1.86Z"/><path class="a" d="M34.1,7.53l5.92,0V8.66l-4.63,0v1.53h4V11.3h-4V13l4.74,0v1.11l-6,0Z"/><path class="a" d="M45.39,7.57h1.47L50,14.19H48.68L48,12.67h-3.8l-.7,1.51H42.12Zm2.1,4L46.12,8.61l-1.39,2.94Z"/><path class="a" d="M59.08,11.87c-.13.74-.66,2.51-3.7,2.5-2.09,0-3.73-1.18-3.72-3.58,0-1.92,1.22-3.35,3.85-3.35,3,0,3.38,1.93,3.48,2.28H57.7a2.09,2.09,0,0,0-2.12-1.17A2.26,2.26,0,0,0,53,10.94a2.27,2.27,0,0,0,2.51,2.32,2.21,2.21,0,0,0,2.3-1.4Z"/><path class="a" d="M68.12,5.54v2l-4.81,0v-2H62l0,8.71h1.29v-2l4.81,0v2h1.29l0-8.71Zm0,2.93v1l-4.81,0v-1ZM63.3,11.31v-1l4.81,0v1Z"/><path class="a" d="M95.82.76,91.15,21h-2L86.28,4.55,83.31,21H81.26L76.77.69h1.4l4.08,18.41L85.6.73H87l3.22,18.41L94.43.76Z"/><path class="a" d="M103,21.24a5.42,5.42,0,0,1-2.15-.44A5.43,5.43,0,0,1,98,17.87a5.42,5.42,0,0,1-.42-2.16l0-9.65A5.42,5.42,0,0,1,98,3.91,5.43,5.43,0,0,1,100.93,1a5.61,5.61,0,0,1,4.31,0,5.41,5.41,0,0,1,2.91,2.93,5.41,5.41,0,0,1,.42,2.15l0,9.65a5.41,5.41,0,0,1-.44,2.15,5.41,5.41,0,0,1-2.93,2.91A5.41,5.41,0,0,1,103,21.24Zm.07-19.3a4,4,0,0,0-1.62.33,4.11,4.11,0,0,0-2.21,2.19,4,4,0,0,0-.33,1.62l0,9.65a4,4,0,0,0,.32,1.63,4.12,4.12,0,0,0,2.19,2.2,4.15,4.15,0,0,0,3.24,0,4.23,4.23,0,0,0,1.32-.88,4.17,4.17,0,0,0,.89-1.31,4,4,0,0,0,.33-1.62l0-9.65a4,4,0,0,0-.32-1.62,4.09,4.09,0,0,0-2.19-2.2A4,4,0,0,0,103.08,1.94Z"/><path class="a" d="M126.63.66a5.41,5.41,0,0,1,2.15.44A5.42,5.42,0,0,1,131.69,4a5.38,5.38,0,0,1,.42,2.15l0,4.8,0,10.15h-1.36l0-10.15,0-4.8a4.06,4.06,0,0,0-.32-1.62,4.11,4.11,0,0,0-2.19-2.2A4,4,0,0,0,126.63,2a3.88,3.88,0,0,0-1.6.33,4.52,4.52,0,0,0-1.32.88,4,4,0,0,0-.91,1.31,4,4,0,0,0-.33,1.62l0,4.8,0,10.15h-1.36l0-10.15,0-4.8a4.05,4.05,0,0,0-.32-1.62,4.1,4.1,0,0,0-2.19-2.2,4.14,4.14,0,0,0-3.24,0,4.11,4.11,0,0,0-2.21,2.19,4,4,0,0,0-.33,1.62l0,4.8,0,10.15h-1.36l0-10.15,0-4.8,0-5.3h1.36V2.51a5.54,5.54,0,0,1,7-1.09,5.46,5.46,0,0,1,2,2.06,5.48,5.48,0,0,1,2-2A5.32,5.32,0,0,1,126.63.66Z"/><path class="a" d="M144.48,7.22v-1a4.34,4.34,0,0,0-1-2.94,3.48,3.48,0,0,0-2.77-1.22,3.88,3.88,0,0,0-1.6.33,4.5,4.5,0,0,0-1.32.88,4.07,4.07,0,0,0-1.24,2.93h-1.36A5.42,5.42,0,0,1,135.6,4a5.42,5.42,0,0,1,2.93-2.91,5.42,5.42,0,0,1,2.16-.42,4.95,4.95,0,0,1,3.71,1.61,5.53,5.53,0,0,1,1.06,1.75,5.92,5.92,0,0,1,.38,2.15l0,4.8,0,4.85,0,5.3h-1.35V19.49a6,6,0,0,1-1.85,1.37,5.23,5.23,0,0,1-2.3.51,5.42,5.42,0,0,1-2.15-.44A5.42,5.42,0,0,1,135.22,18a5.42,5.42,0,0,1-.42-2.16V14.7q0-2.55,3.14-3.69.37-.16,1.25-.49l1.89-.71c.67-.26,1.33-.49,2-.73C144.41,8.54,144.48,8,144.48,7.22Zm-6.06,5.07a4.05,4.05,0,0,0-1.52.86,2.5,2.5,0,0,0-.75,1.56v1.15a4,4,0,0,0,.32,1.63,4.12,4.12,0,0,0,2.19,2.2,4.15,4.15,0,0,0,3.25,0,4.11,4.11,0,0,0,2.2-2.19,4,4,0,0,0,.34-1.62l0-4.85V10Z"/><path class="a" d="M154.42.76a5.44,5.44,0,0,1,2.16.44,5.42,5.42,0,0,1,2.9,2.93,5.4,5.4,0,0,1,.42,2.15l0,4.8,0,10.15h-1.36l0-10.15,0-4.8a4.07,4.07,0,0,0-.32-1.62,4.23,4.23,0,0,0-.88-1.32A4.18,4.18,0,0,0,156,2.45a4.14,4.14,0,0,0-3.24,0,4.1,4.1,0,0,0-2.2,2.19,4,4,0,0,0-.33,1.62l0,4.8,0,10.15h-1.35l0-10.15,0-4.8,0-5.3h1.35V2.64A5.39,5.39,0,0,1,154.42.76Z"/></svg>