<svg xmlns="http://www.w3.org/2000/svg" viewBox="0 0 158 25"><defs><style>.a{fill:#767777;}.b{fill:#fff;}</style></defs><title>採用LP_20161007 (2)</title><path class="a" d="M.69,5.89l5.93,0c3,0,6.1.44,6.09,4.09,0,2.15-1.46,3.54-3.85,3.89l4.33,6.82H11L6.83,14,2.47,14l0,6.64H.63ZM2.48,12.4H6.12c2,0,4.63,0,4.64-2.43,0-2.13-1.92-2.45-3.69-2.45l-4.57,0Z"/><path class="a" d="M23.22,6l9.23,0V7.62L25,7.6l0,4.63,7,0v1.63l-7,0,0,5.26,7.86,0v1.63l-9.61,0Z"/><path class="a" d="M56.05,19.63A11.21,11.21,0,0,1,50.57,21a7.45,7.45,0,0,1-7.79-7.78,7.58,7.58,0,0,1,7.91-7.73,7,7,0,0,1,5.16,2L54.54,8.8a5.48,5.48,0,0,0-4-1.7,5.84,5.84,0,0,0-5.92,6.11,5.86,5.86,0,0,0,6,6.15,8.55,8.55,0,0,0,3.64-.84l0-4.52H51V12.35l5.11,0Z"/><path class="a" d="M69,6.12h1.85l-.05,14.78H69Z"/><path class="a" d="M82.68,13.34a7.76,7.76,0,1,1,15.52.05,7.76,7.76,0,1,1-15.52-.05Zm13.63,0a5.88,5.88,0,1,0-11.74,0,5.88,5.88,0,1,0,11.74,0Z"/><path class="a" d="M107.82,6.26H110l8.51,12.3h0l0-12.27h1.75l-.05,14.78h-2.21L109.61,8.77h0l0,12.28h-1.75Z"/><rect class="a" x="133.66" y="0.63" width="23.64" height="23.64" transform="translate(132.52 157.89) rotate(-89.8)"/><polygon class="b" points="145.87 14.96 141.02 21.3 143.43 21.31 145.85 18.12 148.26 21.33 150.67 21.34 145.87 14.96"/><path class="b" d="M142.49,9.8a1.47,1.47,0,1,1-2.95,0l0-5.49h-2.18l0,5.53a3.65,3.65,0,0,0,7.3,0l0-5.53h-2.18Z"/><path class="b" d="M150.26,4.34h-3.11l0,8.9h2.18V9.85H150c1,0,3.63,0,3.64-2.77C153.64,5.32,152.44,4.35,150.26,4.34Zm-.94,2H150c1.22,0,1.38.38,1.38.78,0,.6-.38.79-1.55.79h-.51Z"/></svg>