<?xml version="1.0" encoding="utf-8"?>
<!-- Generator: Adobe Illustrator 20.1.0, SVG Export Plug-In . SVG Version: 6.00 Build 0)  -->
<svg version="1.1" id="レイヤー_1" xmlns="http://www.w3.org/2000/svg" xmlns:xlink="http://www.w3.org/1999/xlink" x="0px"
	 y="0px" viewBox="0 0 158 34" style="enable-background:new 0 0 158 34;" xml:space="preserve">
<style type="text/css">
	.st0{fill:#777777;}
</style>
<title>採用LP_20161007 (2)</title>
<g>
	<g>
		<path class="st0" d="M1.2,8.1h8.3c2,0,3.6,0.6,4.6,1.6c0.8,0.8,1.2,1.8,1.2,3v0.1c0,2-1.1,3.1-2.3,3.8c2.1,0.8,3.3,2,3.3,4.4V21
			c0,3.2-2.6,4.9-6.7,4.9H1.2V8.1z M8.6,15.3c1.7,0,2.8-0.6,2.8-1.9v-0.1c0-1.2-0.9-1.8-2.6-1.8H5v3.8H8.6z M9.6,22.5
			c1.7,0,2.8-0.6,2.8-1.9v-0.1c0-1.2-0.9-1.9-2.9-1.9H5v3.9H9.6z"/>
		<path class="st0" d="M33.3,22.9L43,11.5h-9.5V8.1h14.5v3l-9.8,11.4h9.8v3.4H33.3V22.9z"/>
		<path class="st0" d="M55.2,8.1h3.9v7h7.2v-7h3.9v17.8h-3.9v-7.1h-7.2v7.1h-3.9V8.1z"/>
		<path class="st0" d="M78.2,8.1h3.9v17.8h-3.9V8.1z"/>
		<path class="st0" d="M90,8.1h3.6l8.3,10.9V8.1h3.9v17.8h-3.3l-8.6-11.3v11.3H90V8.1z"/>
		<path class="st0" d="M116.5,11.7h-5.4V8.1h14.7v3.6h-5.4v14.2h-3.9V11.7z"/>
		<g>
			<path class="st0" d="M22.6,8.1h3.9v17.8h-3.9V8.1z"/>
			<circle class="st0" cx="24.6" cy="2.8" r="2.2"/>
		</g>
		<circle class="st0" cx="80.1" cy="31.2" r="2.2"/>
	</g>
	<g>
		<path class="st0" d="M144,4.1c-7.1,0-12.9,5.8-12.9,12.9s5.8,12.9,12.9,12.9s12.9-5.8,12.9-12.9S151.1,4.1,144,4.1z M143.2,21.7
			h-2V18h-3.7v3.7h-2v-9.2h2v3.6h3.7v-3.6h2V21.7z M150.8,21.7l-2-2.9h0h-1.6v2.9h-2v-9.2h4.2c1.2,0,2.1,0.3,2.7,0.9
			c0.5,0.5,0.8,1.2,0.8,2.1v0c0,1.5-0.8,2.4-2,2.9l2.2,3.3H150.8z"/>
		<path class="st0" d="M149.1,14.3h-2v2.6h2.1c1,0,1.6-0.5,1.6-1.3v0C150.6,14.7,150,14.3,149.1,14.3z"/>
	</g>
</g>
</svg>
