<svg xmlns="http://www.w3.org/2000/svg" viewBox="0 0 165 22"><defs><style>.a{fill:#777;}</style></defs><title>採用LP_20161007 (2)</title><path class="a" d="M.63,5.23l9.49,0c3.7,0,6.17,1.06,6.16,4.05a3.42,3.42,0,0,1-1.83,3.26,4.21,4.21,0,0,1,2.41,3.89c0,3-2.38,4.56-6.21,4.55L.58,21Zm9.66,6.25c2,0,2.9-.49,2.91-1.81s-.88-1.84-2.9-1.85l-6.61,0v3.66Zm.06,7c1.95,0,3.42-.38,3.43-2.24,0-1.65-1.34-2.17-3.41-2.18L3.68,14l0,4.42Z"/><path class="a" d="M24.31,5.31H27.4l-.06,15.75H24.26Z"/><path class="a" d="M34.07,21.09V19.57L45.12,8,34.68,8V5.35l15,.05V7.13L38.93,18.47l11,0v2.64Z"/><path class="a" d="M57,5.43l9.46,0c3.73,0,6.41.87,6.39,4.72a4.46,4.46,0,0,1-4.41,4.62l4.81,6.43H69.43L64.88,15,60,15l0,6.2H56.91Zm9,7c2.51,0,3.79-.35,3.8-2.22S68.48,8,66,8L60,8l0,4.44Z"/><path class="a" d="M80.16,5.51l14.12,0V8.2l-11,0v3.66l9.51,0V14.5l-9.51,0v4.16l11.31,0V21.3l-14.38-.05Z"/><path class="a" d="M107.08,5.6h3.51l7.59,15.77h-3.25l-1.63-3.62-9.07,0-1.68,3.61H99.27Zm5,9.5-3.27-7-3.32,7Z"/><path class="a" d="M139.73,15.85c-.31,1.75-1.58,6-8.81,6-5,0-8.89-2.8-8.87-8.54,0-4.59,2.91-8,9.17-8,7,0,8.06,4.6,8.3,5.44h-3.07c-.17-.54-1.38-2.78-5.06-2.79-4.35,0-6.18,2.43-6.19,5.7,0,3.62,2.6,5.53,6,5.54,3.6,0,5.18-2.13,5.49-3.34Z"/><path class="a" d="M161.3.76l0,4.72-11.46,0,0-4.72h-3.09l-.07,20.78h3.09l0-4.72,11.46,0,0,4.72h3.09L164.39.77Zm0,7V10l-11.46,0V7.7Zm-11.49,6.76V12.24l11.46,0v2.27Z"/></svg>