<svg xmlns="http://www.w3.org/2000/svg" viewBox="0 0 108 33"><defs><style>.a{fill:#767777;}</style></defs><title>採用LP_20161007 (2)</title><path class="a" d="M.24,1h4l0,7.22,7.4,0,0-7.22h4l-.06,18.23h-4l0-7.32-7.4,0,0,7.32h-4Z"/><path class="a" d="M21.94,1.06l8.34,0A7.27,7.27,0,0,1,35.58,3a5.72,5.72,0,0,1,1.55,4.17v.05a5.66,5.66,0,0,1-3.93,5.64l4.43,6.53-4.69,0-3.89-5.85H25.91l0,5.83h-4Zm8,8.88c2,0,3.08-1,3.08-2.57V7.33c0-1.72-1.19-2.61-3.14-2.62h-4l0,5.24Z"/><path class="a" d="M70.08,10.4v-.05a9.69,9.69,0,0,1,19.38,0v.05a9.69,9.69,0,0,1-19.38,0Zm15.19.05V10.4a5.54,5.54,0,0,0-5.5-5.75,5.45,5.45,0,0,0-5.49,5.66v.05a5.54,5.54,0,0,0,5.5,5.75A5.45,5.45,0,0,0,85.27,10.45Z"/><path class="a" d="M93.11,16.89l2.38-2.83a8.36,8.36,0,0,0,5.44,2.23c1.64,0,2.63-.64,2.64-1.71v-.05c0-1-.62-1.54-3.66-2.33-3.67-1-6-2-6-5.6V6.55c0-3.31,2.68-5.49,6.4-5.47A10.55,10.55,0,0,1,107,3.42l-2.09,3a8.56,8.56,0,0,0-4.73-1.81c-1.54,0-2.35.7-2.35,1.58v.05c0,1.2.78,1.59,3.92,2.41,3.7,1,5.77,2.31,5.76,5.49v.05c0,3.62-2.78,5.64-6.71,5.63A11.6,11.6,0,0,1,93.11,16.89Z"/><path class="a" d="M53.61,20.86l-3-2.69a27.69,27.69,0,0,0,7.08-17h4a27.37,27.37,0,0,0,6.5,16.49l-3.06,2.59A31.45,31.45,0,0,1,59.68,11,31.61,31.61,0,0,1,53.61,20.86Z"/><path class="a" d="M50.33,1.16h-4a27.42,27.42,0,0,1-6.17,15.92l3.11,2.54a31.44,31.44,0,0,0,5.35-9.52,21.76,21.76,0,0,0,2.63,4A25.54,25.54,0,0,0,53.54,10,13.62,13.62,0,0,1,50.33,1.16Z"/><path class="a" d="M70,31.62A11.65,11.65,0,0,0,72.13,25l1,.15a13,13,0,0,1-2.25,7.15ZM76.36,25c.24,3.9,1.31,5.59,2.06,6.6l-.9.7a13.7,13.7,0,0,1-2.23-7.18Z"/><path class="a" d="M87.17,28v1l-6.84,0V28Z"/><path class="a" d="M96.83,25.26v1H93.1v1.83h4.27v1H93.09v1.89c0,.36,0,.49.57.49H95l2,0-.07,1H93.3A1.14,1.14,0,0,1,92,31.29V29h-2.5V28h2.5V26.22H89.95v-1Z"/><path class="a" d="M99.73,31.67A9.46,9.46,0,0,0,105,26.22l-4.74,0v-1l6.13,0A9.87,9.87,0,0,1,104.63,29c1.06.86,2.1,1.76,3.07,2.72l-.86.86a26.72,26.72,0,0,0-2.83-2.8,9.54,9.54,0,0,1-3.66,2.74Z"/></svg>