<svg xmlns="http://www.w3.org/2000/svg" viewBox="0 0 131 34"><defs><style>.a{fill:#767777;}</style></defs><title>採用LP_20161007 (2)</title><rect class="a" x="43.99" y="3.35" width="4.18" height="14.5" transform="translate(35.32 56.64) rotate(-89.8)"/><rect class="a" x="43.96" y="16.45" width="4.18" height="15.44" transform="translate(21.72 70.14) rotate(-89.8)"/><path class="a" d="M66.93,8.76c.1-.41.18-.85.24-1.29l0-.27H63l0,.2a13.27,13.27,0,0,1-1,3.18,16.47,16.47,0,0,1-1.28,2.26,7.22,7.22,0,0,1-1.13,1.35c-.33.28-.52.42-.52.43l-.1.07,0,5.08.35-.19a10.05,10.05,0,0,0,.94-.6,17.8,17.8,0,0,0,2.2-2,21.82,21.82,0,0,0,2.64-3.36l5.05,0a12,12,0,0,1-1.15,4,10.4,10.4,0,0,1-2.28,2.92A11.82,11.82,0,0,1,64,22.43a13.46,13.46,0,0,1-2.19.86c-.59.16-.91.22-.91.22l-.2,0,0,4.3.27,0s.33,0,.92-.18a17.13,17.13,0,0,0,2.29-.75,22.77,22.77,0,0,0,3-1.47A15.68,15.68,0,0,0,70.34,23,13.41,13.41,0,0,0,73,19a16.38,16.38,0,0,0,1.39-5.51V9.67l-7.7,0Z"/><rect class="a" x="76.25" y="11.23" width="11.55" height="4.14" transform="translate(68.43 95.27) rotate(-89.8)"/><path class="a" d="M89.17,16.43a7.81,7.81,0,0,1-.61,3.15,7.16,7.16,0,0,1-1.35,2,5.55,5.55,0,0,1-1.62,1.16,10.85,10.85,0,0,1-2.08.67l-.19,0,0,4.38.29-.06,1-.21a15.78,15.78,0,0,0,2.32-.77A11.32,11.32,0,0,0,89.81,25a9.43,9.43,0,0,0,2.51-3.42,12.83,12.83,0,0,0,1-5.11l0-8.88H89.2Z"/><rect class="a" x="102.38" y="11.63" width="4.18" height="11.38" transform="translate(86.78 121.73) rotate(-89.8)"/><path class="a" d="M125,12.47l4.72,0V8.33L115.1,8.28v4.16l5.66,0v2.19l-6.32,0v4.16l6.21,0a4.76,4.76,0,0,1-1,2.2,5.51,5.51,0,0,1-1.81,1.44,8.92,8.92,0,0,1-1.82.68c-.51.12-.82.16-.82.16l-.21,0,0,4.43.29-.06.89-.2a16.42,16.42,0,0,0,2.21-.72,11.94,11.94,0,0,0,2.7-1.53,11.42,11.42,0,0,0,2.5-2.62,8.07,8.07,0,0,0,1.35-3.79l5.45,0V14.68l-5.4,0Z"/><path class="a" d="M21.09,1.5a21.06,21.06,0,0,1-4.18,4.36,10.34,10.34,0,0,0-9.23,6.41,21.06,21.06,0,0,1-5.55,2.4c-2,.57-1.1,1.64-.05,2.5a6.22,6.22,0,0,0,4.63,1.4,1.22,1.22,0,0,0,.43-.18,10.36,10.36,0,0,0,10,8.17,7.1,7.1,0,0,1,.59-3.33,7.1,7.1,0,0,1-1.75-.11v0a7,7,0,1,1,8.24-5.73,7.07,7.07,0,0,1-.51,1.68l-.13.29A7,7,0,0,1,21.28,22h0a5,5,0,0,0-2.13,4.41A10.36,10.36,0,0,0,22.84,7.49a1.22,1.22,0,0,0,.32-.34,6.22,6.22,0,0,0,.3-4.83C23,1,22.34-.2,21.09,1.5Z"/><path class="a" d="M29.93,22.08A7,7,0,0,0,27,19.66a10.34,10.34,0,0,1-.87,1.85,5,5,0,1,1-4.9.47h0a7,7,0,0,0,2.26-2.63l.13-.29a7.06,7.06,0,1,0,6.26,3Z"/></svg>