<svg xmlns="http://www.w3.org/2000/svg" viewBox="0 0 130 34"><defs><style>.a{fill:#44403f;}.b{fill:#b6131d;}.c{fill:#f2d13e;}</style></defs><title>採用LP_20161013</title><rect class="a" x="38.4" y="8.44" width="14.5" height="4.18"/><rect class="a" x="37.95" y="22.01" width="15.44" height="4.18"/><path class="a" d="M66.49,8.62c.09-.41.18-.85.24-1.29l0-.27h-4.2l0,.2a13.27,13.27,0,0,1-1,3.19A16.47,16.47,0,0,1,60.3,12.7a7.22,7.22,0,0,1-1.13,1.36c-.33.28-.52.42-.52.43l-.1.07v5.08l.35-.19a10.05,10.05,0,0,0,.93-.61,17.8,17.8,0,0,0,2.19-2,21.82,21.82,0,0,0,2.63-3.37h5.05a12,12,0,0,1-1.13,4,10.4,10.4,0,0,1-2.27,2.93,11.82,11.82,0,0,1-2.7,1.9,13.46,13.46,0,0,1-2.19.87c-.59.16-.91.22-.91.22l-.2,0v4.3l.27,0s.33,0,.92-.18a17.13,17.13,0,0,0,2.29-.75,22.77,22.77,0,0,0,3-1.48A15.68,15.68,0,0,0,70,22.8a13.41,13.41,0,0,0,2.66-3.93A16.38,16.38,0,0,0,74,13.35V9.5h-7.7Z"/><rect class="a" x="79.53" y="7.33" width="4.14" height="11.55"/><path class="a" d="M88.76,16.21a7.81,7.81,0,0,1-.6,3.15,7.16,7.16,0,0,1-1.35,2,5.55,5.55,0,0,1-1.62,1.17,10.85,10.85,0,0,1-2.08.68l-.19,0v4.38l.29-.06,1-.21a15.78,15.78,0,0,0,2.31-.78,11.32,11.32,0,0,0,2.93-1.87,9.43,9.43,0,0,0,2.5-3.42,12.83,12.83,0,0,0,1-5.11V7.33H88.76Z"/><rect class="a" x="98.37" y="14.96" width="11.38" height="4.18"/><path class="a" d="M124.56,12.13h4.72V8H114.66v4.16h5.66v2.19H114v4.16h6.21a4.76,4.76,0,0,1-1,2.2,5.51,5.51,0,0,1-1.81,1.45,8.92,8.92,0,0,1-1.81.69c-.51.12-.82.16-.82.16l-.21,0v4.43l.29-.06.89-.2a16.42,16.42,0,0,0,2.2-.73,11.94,11.94,0,0,0,2.7-1.54,11.42,11.42,0,0,0,2.5-2.63,8.07,8.07,0,0,0,1.34-3.79H130V14.32h-5.4Z"/><path class="b" d="M20.63,1.52A21.06,21.06,0,0,1,16.46,5.9a10.34,10.34,0,0,0-9.21,6.45,21.06,21.06,0,0,1-5.54,2.42c-2,.58-1.09,1.65,0,2.5A6.22,6.22,0,0,0,6.3,18.65a1.22,1.22,0,0,0,.43-.18,10.36,10.36,0,0,0,10,8.13,7.1,7.1,0,0,1,.58-3.33,7.1,7.1,0,0,1-1.75-.11v0a7,7,0,1,1,8.22-5.76,7.07,7.07,0,0,1-.5,1.68l-.13.29A7,7,0,0,1,20.89,22h0a5,5,0,0,0-2.11,4.42A10.36,10.36,0,0,0,22.4,7.5a1.22,1.22,0,0,0,.32-.34A6.22,6.22,0,0,0,23,2.34C22.55,1.06,21.87-.18,20.63,1.52Z"/><path class="c" d="M29.54,22.06a7,7,0,0,0-2.92-2.4,10.34,10.34,0,0,1-.86,1.86,5,5,0,1,1-4.9.49h0a7,7,0,0,0,2.25-2.63l.13-.29a7.06,7.06,0,1,0,6.27,3Z"/></svg>