<?xml version="1.0" encoding="utf-8"?>
<!-- Generator: Adobe Illustrator 20.1.0, SVG Export Plug-In . SVG Version: 6.00 Build 0)  -->
<svg version="1.1" id="レイヤー_1" xmlns="http://www.w3.org/2000/svg" xmlns:xlink="http://www.w3.org/1999/xlink" x="0px"
	 y="0px" viewBox="0 0 165 45.9000015" style="enable-background:new 0 0 165 45.9000015;" xml:space="preserve">
<style type="text/css">
	.st0{fill:#777777;}
</style>
<title>採用LP_20161007 (2)</title>
<g id="ベクトルスマートオブジェクト_1_">
	<g>
		<g>
			<path class="st0" d="M35.2593803,42.7154388c-5.2890091,0-9.5921555-4.3031464-9.5921555-9.5921555v-3.1973877
				c0-0.8827438-0.715683-1.5986919-1.5986938-1.5986919c-0.8827457,0-1.5986919,0.7159481-1.5986919,1.5986919v3.1973877
				c0,5.2890091-4.3028831,9.5921555-9.5918922,9.5921555c-0.8830128,0-1.5986929,0.715683-1.5986929,1.5986938
				s0.7156801,1.5986938,1.5986929,1.5986938c4.8104668,0,9.0075684-2.6708832,11.1905842-6.6066017
				c2.1832829,3.9357185,6.3801174,6.6066017,11.1908493,6.6066017c0.8830109,0,1.5986938-0.715683,1.5986938-1.5986938
				S36.1423912,42.7154388,35.2593803,42.7154388"/>
			<path class="st0" d="M47.0262146,18.3423519c-0.8401184-0.2725754-1.7415123,0.1867809-2.0143547,1.0263615
				c-1.6343956,5.0302868-7.0566292,7.7928276-12.0869179,6.158432h-0.000267l-3.0404453-0.9877262
				c-0.8395805-0.2725773-1.7415104,0.186779-2.0146217,1.0263596c-0.2725754,0.8395805,0.1867828,1.7415104,1.0266285,2.0143528
				l3.0407143,0.9879932c2.4366722,0.7916183,4.419323,2.4851685,5.5826378,4.7678356
				c1.163044,2.2829323,1.3676796,4.8821411,0.5757942,7.3188171c-0.2728462,0.8398438,0.186779,1.7417755,1.0266266,2.0146179
				c0.1641312,0.0532913,0.3303986,0.0786018,0.4942589,0.0786018c0.673851,0,1.3005409-0.429512,1.520092-1.1052284
				c1.0556717-3.2488098,0.7828293-6.7145119-0.7679024-9.7584209c-0.551281-1.0817833-1.2429848-2.062048-2.0484581-2.9266758
				c4.414257-0.8624935,8.2471237-4.0287056,9.7325745-8.6009655
				C48.3254166,19.5171261,47.8657913,18.6151962,47.0262146,18.3423519"/>
			<path class="st0" d="M25.8214169,2.8792589c2.0729713,1.5059707,3.4350586,3.7289541,3.8357964,6.2596855
				c0.4010048,2.5304623-0.2078285,5.0657234-1.7137985,7.1386948l-1.8792629,2.5864182
				c-0.519043,0.7143497-0.3607712,1.7140656,0.3535786,2.2331085c0.2837658,0.2062302,0.6125641,0.3056145,0.9384308,0.3056145
				c0.4942627,0,0.9818649-0.228611,1.2946758-0.659193l1.8792629-2.5866833
				c3.10919-4.27917,9.1194744-5.2306595,13.3983784-2.1222668c0.7140846,0.5190411,1.7140656,0.3607731,2.2331085-0.3535767
				c0.5187759-0.7143488,0.360508-1.7140665-0.3538437-2.2331085c-3.8896217-2.8259554-8.8511658-3.1331711-12.9294281-1.2360563
				c0.1436157-1.1734381,0.1270943-2.3732595-0.0631523-3.5730762c-0.5342255-3.3743081-2.3506088-6.3382869-5.1144829-8.3462439
				c-0.7140827-0.5187775-1.7140656-0.3607728-2.2328415,0.3535765C24.9487972,1.3605013,25.1070652,2.3602171,25.8214169,2.8792589
				"/>
			<path class="st0" d="M4.2088199,16.0347195c4.2789016-3.1089258,10.2894535-2.1571684,13.3981113,2.1222649l1.87953,2.5864201
				c0.3128128,0.4305801,0.8001461,0.659193,1.2946758,0.659193c0.3255997,0,0.654665-0.0993862,0.9384327-0.3053513
				c0.7140827-0.5190411,0.8726215-1.5187569,0.3535767-2.2331066l-1.8792629-2.5866852
				c-1.5062351-2.0727053-2.1148033-4.6079655-1.7140656-7.1386967c0.4010048-2.5304632,1.7630901-4.753715,3.8360653-6.2594175
				c0.7143478-0.5190418,0.8726196-1.5187576,0.3535748-2.2331069c-0.518774-0.7140809-1.5187569-0.872354-2.2331066-0.3538448
				c-2.763607,2.0082254-4.5799885,4.9722047-5.1144848,8.3462439c-0.1899776,1.1998215-0.2064981,2.3999062-0.0628815,3.5733442
				c-4.0782661-1.8971138-9.0400753-1.5898991-12.9294291,1.2360563c-0.7143494,0.5190439-0.87262,1.5187597-0.3538439,2.2331085
				C2.4950211,16.3954906,3.4947371,16.5537624,4.2088199,16.0347195"/>
			<path class="st0" d="M16.2002964,28.5680981c0.000267,0,0.000267,0,0.0005322-0.000267l3.0401821-0.9877243
				c0.8398457-0.2728424,1.2992039-1.1745071,1.0266266-2.0143528c-0.2731113-0.8395805-1.1750393-1.2986717-2.0146198-1.0263615
				l-3.0407133,0.9877262c-5.0305538,1.6346626-10.4522552-1.1284103-12.0869179-6.1584339
				c-0.2728441-0.8395786-1.1750393-1.2986717-2.0143535-1.0263596c-0.8395805,0.2728443-1.2992043,1.1747723-1.0263612,2.0146198
				c1.4857187,4.5725288,5.3180528,7.7384739,9.7323103,8.6009674c-0.8052082,0.8643608-1.4969091,1.8446255-2.0481915,2.9266739
				c-1.5509987,3.0436478-1.8235755,6.509346-0.7679062,9.7584229c0.2195544,0.6754456,0.846242,1.1049614,1.5200915,1.1049614
				c0.1638651,0,0.3303957-0.0253105,0.4942627-0.0786018c0.8398466-0.2728424,1.2994699-1.1747704,1.0266256-2.0146179
				c-0.7918844-2.436676-0.5872526-5.0358849,0.5757971-7.3188171
				C11.7809753,31.0529995,13.7636213,29.3597183,16.2002964,28.5680981"/>
			<path class="st0" d="M59.1981316,29.9740963v-0.0410328c0-4.0910549,3.0836143-7.4419174,7.5034676-7.4419174
				c2.7135086,0,4.3375168,0.9045963,5.6737595,2.2203197l-2.0146179,2.3229008
				c-1.1100311-1.0071754-2.2405701-1.6240063-3.679657-1.6240063c-2.4257507,0-4.1731262,2.0146217-4.1731262,4.4816704v0.0410328
				c0,2.4667816,1.7060699,4.5227013,4.1731262,4.5227013c1.644516,0,2.6516953-0.6578598,3.7822342-1.6858215l2.0148849,2.0351372
				c-1.4801178,1.5829735-3.1249084,2.5696335-5.899971,2.5696335
				C62.3432922,37.3747139,59.1981316,34.1061859,59.1981316,29.9740963"/>
			<path class="st0" d="M82.3059311,22.6351891h2.9192123l6.1672287,14.4929504h-3.3095627l-1.3157272-3.2274933h-6.0848923
				l-1.3157196,3.2274933h-3.2277679L82.3059311,22.6351891z M85.6362762,31.1047974l-1.9117737-4.666584l-1.9117661,4.666584
				H85.6362762z"/>
			<polygon class="st0" points="96.1836319,22.7378788 99.5960312,22.7378788 103.3788147,28.822773 107.1610489,22.7378788 
				110.5739975,22.7378788 110.5739975,37.1282463 107.428566,37.1282463 107.428566,27.7335281 103.3788147,33.8799706 
				103.2964783,33.8799706 99.2877579,27.7950783 99.2877579,37.1282463 96.1836319,37.1282463 			"/>
			<path class="st0" d="M118.141037,22.7379589h5.8794556c3.4329224,0,5.5090942,2.0351353,5.5090942,4.9748669v0.0410328
				c0,3.3303432-2.5901413,5.0571995-5.8176422,5.0571995h-2.4052353v4.3170013h-3.1656723V22.7379589z M123.8147964,29.9946918
				c1.5829697,0,2.5080872-0.9456253,2.5080872-2.1790161V27.774374c0-1.4183064-0.9869308-2.1790161-2.5699081-2.1790161
				h-2.4462662v4.399334H123.8147964z"/>
			<path class="st0" d="M135.4517822,30.9609165v-8.2231426h3.1656647v8.14081c0,2.3436832,1.1718445,3.5565586,3.1041412,3.5565586
				c1.9325562,0,3.1044006-1.1718407,3.1044006-3.4537086v-8.24366h3.1656647v8.1202927
				c0,4.3583031-2.4462585,6.4962883-6.3110962,6.4962883S135.4517822,35.1955872,135.4517822,30.9609165"/>
			<path class="st0" d="M153.6054535,35.0312157l1.8707428-2.2405701c1.2949371,1.0689926,2.6516876,1.7471085,4.2964935,1.7471085
				c1.2949371,0,2.0761566-0.5137138,2.0761566-1.3567581v-0.0410347c0-0.8017426-0.4931946-1.2128754-2.8984222-1.8297043
				c-2.8987122-0.7399292-4.7694397-1.5416718-4.7694397-4.3990688v-0.0412998c0-2.6106663,2.0966949-4.3375225,5.0366821-4.3375225
				c2.0966797,0,3.8853455,0.6578636,5.3446808,1.8294392l-1.644516,2.3847179
				c-1.2744141-0.883812-2.5283203-1.4183083-3.7414703-1.4183083c-1.2126007,0-1.8502197,0.5550137-1.8502197,1.2539101v0.0412979
				c0,0.9456272,0.6168365,1.2539082,3.104126,1.8909874c2.9192047,0.7607117,4.563736,1.8091869,4.563736,4.3172703v0.0410347
				c0,2.8576622-2.1787567,4.4608841-5.2831573,4.4608841C157.5318451,37.3335991,155.3323059,36.5731544,153.6054535,35.0312157"/>
			<path class="st0" d="M61.8407402,8.3457251h3.0604286c0.8214645,0,1.4686661,0.2360735,1.8795319,0.6368122
				c0.2976227,0.3080168,0.4620209,0.6879711,0.4620209,1.1499958v0.0207796c0,0.9344368-0.5749969,1.4169769-1.1398697,1.6634417
				c0.8523712,0.256855,1.5403442,0.7497854,1.5403442,1.7356472v0.0207815c0,1.2323265-1.0372849,1.9613304-2.6085358,1.9613304
				h-3.1939201V8.3457251z M64.7676773,11.5497742c0.9757385,0,1.6533203-0.4415092,1.6533203-1.2837524v-0.0202513
				c0-0.7087507-0.5648727-1.1707754-1.5917664-1.1707754h-2.1872787v2.4747791H64.7676773z M65.0551834,14.8055096
				c1.0884399,0,1.7662888-0.4828043,1.7662888-1.2837486v-0.0207844c0-0.7804289-0.6570663-1.2320595-1.9101791-1.2320595
				h-2.2693405v2.5365925H65.0551834z"/>
			<rect x="72.4232635" y="8.345643" class="st0" width="0.8116004" height="7.1890569"/>
			<polygon class="st0" points="77.9290314,14.9903717 82.5812225,9.0749426 78.0830307,9.0749426 78.0830307,8.3456717 
				83.6901779,8.3456717 83.6901779,8.890027 79.0278625,14.8054581 83.6901779,14.8054581 83.6901779,15.534729 
				77.9290314,15.534729 			"/>
			<path class="st0" d="M88.611351,8.3456717h3.2863846c0.9139175,0,1.622673,0.2568579,2.0948257,0.7292709
				c0.4004669,0.4004736,0.6162872,0.9653444,0.6162872,1.6431913v0.0205154c0,1.1603842-0.6264114,1.8896542-1.5406036,2.2285776
				l1.7564316,2.567502h-1.8488922l-1.5403366-2.3005199h-1.2427139v2.3005199H88.611351V8.3456717z M91.7948914,11.8374825
				c0.7703018,0,1.2117996-0.410862,1.2117996-1.0167665v-0.0205154c0-0.6778479-0.4724045-1.0268955-1.2427139-1.0268955
				h-1.5712433v2.0641775H91.7948914z"/>
			<polygon class="st0" points="99.3758698,8.345643 104.7983627,8.345643 104.7983627,9.7524967 100.947113,9.7524967 
				100.947113,11.2110376 104.3360825,11.2110376 104.3360825,12.6178856 100.947113,12.6178856 100.947113,14.1275845 
				104.8497849,14.1275845 104.8497849,15.5347004 99.3758698,15.5347004 			"/>
			<path class="st0" d="M111.7525482,8.294302h1.4582748l3.0809555,7.2402134h-1.6533203l-0.6573257-1.6122828h-3.039917
				l-0.6573334,1.6122828h-1.6125488L111.7525482,8.294302z M113.4162598,12.525507l-0.9552231-2.3311596l-0.9552155,2.3311596
				H113.4162598z"/>
			<path class="st0" d="M119.662117,11.9606628v-0.0205154c0-2.0436602,1.5406036-3.7177591,3.7483978-3.7177591
				c1.355957,0,2.1670303,0.4518967,2.8347549,1.1092253l-1.0063858,1.160387
				c-0.5547409-0.5030556-1.1193542-0.8110714-1.8384933-0.8110714c-1.2118073,0-2.0846939,1.0063753-2.0846939,2.2387009v0.0205173
				c0,1.2323256,0.8523712,2.2592192,2.0846939,2.2592192c0.8217239,0,1.3247833-0.3285303,1.8896484-0.8419781l1.0066528,1.0167694
				c-0.7396622,0.7908192-1.5611267,1.2837505-2.947731,1.2837505
				C121.2333603,15.6579084,119.662117,14.0248423,119.662117,11.9606628"/>
			<polygon class="st0" points="130.5088501,8.345643 132.0904846,8.345643 132.0904846,11.1905184 135.0070343,11.1905184 
				135.0070343,8.345643 136.5886688,8.345643 136.5886688,15.5347004 135.0070343,15.5347004 135.0070343,12.6487923 
				132.0904846,12.6487923 132.0904846,15.5347004 130.5088501,15.5347004 			"/>
		</g>
	</g>
</g>
</svg>
