<svg xmlns="http://www.w3.org/2000/svg" viewBox="0 0 124 26"><defs><style>.a{fill:#767777;}</style></defs><title>採用LP_20161007 (2)</title><path class="a" d="M1.49,25.66c1.11-1.21,2.38-2.37,3.71-3.57a12,12,0,0,1,8.13-2.77,16,16,0,0,1,12.32,5.86.71.71,0,0,0,0-.13l.08-23.62a.71.71,0,0,0-1.21-.5L1,24.46a.7.7,0,0,0,.44,1.2Z"/><path class="a" d="M47.65,5.9l0,0,0,0-12.88,0V8.37l9.47,0c-1.51,5.54-6.88,9.06-10.85,11l1.38,2.34a23.84,23.84,0,0,0,8-5.58c1.89,2,3.83,4.1,5,5.59l2-1.91A68.91,68.91,0,0,0,44.54,14,15.94,15.94,0,0,0,47.65,5.9Z"/><path class="a" d="M77.2,9.19A56.14,56.14,0,0,0,71.86,5.5L70.18,7.64q2.58,1.7,5.33,3.79Z"/><path class="a" d="M87.3,19.46l2.38,2.18a25.16,25.16,0,0,0,2.8-5.56,45.34,45.34,0,0,0,2.05-10l-2.89-.5Q90.8,14.64,87.3,19.46Z"/><path class="a" d="M98.07,6.08a45.34,45.34,0,0,0,2,10,25.16,25.16,0,0,0,2.76,5.58l2.4-2.17Q101.75,14.68,101,5.61Z"/><path class="a" d="M120.81,4.74q-4.78,5.58-13.6,8.21l1.52,2.69a49.92,49.92,0,0,0,6.61-3l0,9.07h2.74l0-10.86a41.89,41.89,0,0,0,5-4.35Z"/><rect class="a" x="101.66" y="5.49" width="3.68" height="1.66" transform="translate(96.82 109.8) rotate(-89.8)"/><rect class="a" x="103.95" y="5.5" width="3.68" height="1.66" transform="translate(99.09 112.1) rotate(-89.8)"/><path class="a" d="M50.72,12.77l1.8,1.95a26.61,26.61,0,0,0,2.36-2.32L60.59,16a17.75,17.75,0,0,1-7.9,3.42L53.79,22c2.92-.72,6.93-1.85,9.91-4.89,2.61-3,3.3-7.58,3.54-11.25l-11.81,0A15.37,15.37,0,0,1,50.72,12.77Zm6.82-4.39,6.73,0a12.68,12.68,0,0,1-1.81,5.44l-5.88-3.58A18.5,18.5,0,0,0,57.54,8.39Z"/><path class="a" d="M70.38,18.24l.67,3c5.09-.52,13.48-1.8,15.77-12.55l-2.6-.92C83,13.1,79.7,17.44,70.38,18.24Z"/></svg>